<?xml version="1.0" encoding="UTF-8" standalone="no"?>
<svg
   version="1.0"
   width="1804"
   height="386"
   viewBox="0 0 7216.000000 1544.000000"
   preserveAspectRatio="xMidYMid meet"
   id="svg10"
   sodipodi:docname="cc_washington_clean.svg"
   inkscape:version="1.4.3 (0d15f75042, 2025-12-25)"
   xmlns:inkscape="http://www.inkscape.org/namespaces/inkscape"
   xmlns:sodipodi="http://sodipodi.sourceforge.net/DTD/sodipodi-0.dtd"
   xmlns="http://www.w3.org/2000/svg"
   xmlns:svg="http://www.w3.org/2000/svg">
  <defs
     id="defs10" />
  <sodipodi:namedview
     id="namedview10"
     pagecolor="#ffffff"
     bordercolor="#666666"
     borderopacity="1.0"
     inkscape:showpageshadow="2"
     inkscape:pageopacity="0.0"
     inkscape:pagecheckerboard="0"
     inkscape:deskcolor="#d1d1d1"
     showgrid="false"
     inkscape:zoom="1.3701844"
     inkscape:cx="890.02616"
     inkscape:cy="193.40462"
     inkscape:window-width="3812"
     inkscape:window-height="2323"
     inkscape:window-x="12"
     inkscape:window-y="61"
     inkscape:window-maximized="1"
     inkscape:current-layer="svg10" />
  <g
     transform="translate(0.000000,1544.000000) scale(0.100000,-0.100000)"
     fill="#C8252C"
     stroke="none"
     id="g10">
    <path
       d="M27885 15061 c-113 -41 -257 -123 -358 -204 -56 -46 -147 -115 -202 -155 -55 -39 -143 -104 -196 -144 -52 -40 -129 -97 -170 -126 -41 -29 -113 -83 -160 -120 -48 -37 -135 -94 -195 -127 -134 -74 -229 -142 -362 -257 -131 -112 -217 -176 -364 -267 -429 -264 -433 -653 -11 -942 146 -100 290 -243 331 -329 63 -134 110 -635 91 -985 -8 -156 -10 -335 -5 -555 5 -179 9 -694 9 -1145 2 -631 5 -854 16 -967 13 -131 13 -163 -2 -310 -14 -144 -15 -218 -6 -628 6 -256 8 -557 4 -671 -5 -157 -2 -247 11 -385 13 -144 15 -224 9 -414 -4 -129 -8 -318 -9 -420 -3 -355 -112 -560 -421 -795 -133 -101 -147 -115 -224 -232 -107 -163 -162 -140 -196 82 -9 55 -27 141 -40 190 -13 50 -38 164 -55 254 -49 258 -90 367 -244 656 -149 279 -326 581 -389 665 -56 74 -677 711 -802 822 -151 134 -527 378 -732 475 -123 57 -173 89 -328 204 -71 54 -206 142 -300 197 -93 55 -234 142 -312 193 -77 52 -187 123 -243 158 -695 436 -948 811 -927 1376 29 808 898 1352 1508 943 191 -128 435 -398 594 -658 32 -52 84 -131 115 -175 32 -44 97 -149 146 -233 253 -437 554 -701 786 -690 283 13 460 231 445 548 -8 163 -100 566 -237 1035 -22 77 -58 237 -80 355 -106 568 -222 705 -725 850 -61 17 -151 44 -201 60 -50 16 -140 39 -200 50 -60 12 -172 37 -249 56 -120 30 -167 36 -332 44 -105 5 -245 15 -310 21 -262 26 -607 0 -858 -64 -55 -15 -166 -37 -247 -51 -175 -30 -410 -110 -563 -190 -493 -260 -528 -286 -808 -599 -490 -548 -751 -1296 -682 -1958 8 -79 20 -191 26 -248 28 -276 243 -875 392 -1092 50 -74 134 -199 243 -364 70 -106 163 -210 307 -342 211 -194 268 -240 376 -304 58 -34 160 -99 226 -145 66 -45 159 -103 207 -128 48 -26 138 -83 200 -127 62 -44 157 -103 210 -131 54 -27 150 -88 215 -134 64 -47 174 -114 244 -149 72 -37 174 -100 233 -145 59 -43 146 -100 194 -126 656 -351 1028 -892 1113 -1621 19 -160 -36 -499 -123 -758 -148 -442 -573 -896 -983 -1050 -209 -79 -686 -88 -885 -16 -533 191 -780 484 -780 928 0 236 67 298 270 249 385 -94 694 -29 992 207 84 66 314 430 362 571 29 87 31 488 3 611 -47 201 -135 433 -202 535 -70 106 -404 427 -490 472 -325 168 -573 220 -880 184 -66 -8 -165 -20 -219 -26 -295 -32 -513 -158 -855 -495 -384 -378 -416 -434 -646 -1120 -158 -471 -21 -1326 287 -1792 39 -59 99 -160 134 -225 89 -166 124 -209 350 -431 275 -270 340 -320 648 -502 240 -141 704 -318 946 -359 109 -19 599 -40 705 -31 39 3 162 10 275 15 518 22 1120 194 1475 420 44 28 132 78 195 110 142 73 207 126 380 310 74 79 191 202 260 274 361 379 392 419 525 690 166 338 197 423 261 721 119 554 138 579 309 415 180 -171 311 -201 785 -180 214 10 453 11 1081 2 982 -12 1014 -9 1164 129 230 212 196 516 -91 820 -189 200 -269 343 -304 544 -19 109 -30 860 -34 2355 -3 811 -8 1678 -11 1925 -12 783 11 944 155 1085 122 121 250 165 475 165 539 0 895 -335 987 -927 23 -149 12 -4397 -12 -4588 -28 -224 -113 -396 -275 -557 -347 -342 -389 -684 -108 -861 117 -73 140 -75 918 -58 204 4 649 9 990 10 808 4 869 19 975 241 117 246 60 444 -185 641 -141 113 -182 195 -215 423 -6 47 -12 685 -16 1775 -10 3078 -7 2894 -54 3106 -186 836 -456 1244 -1058 1602 -98 59 -214 121 -256 137 -42 17 -111 48 -154 70 -107 53 -159 70 -281 87 -58 8 -171 30 -251 49 -397 94 -650 93 -1203 -5 -297 -53 -345 -49 -396 33 -53 86 -54 107 -52 1087 2 912 -6 1234 -33 1361 -45 209 -186 302 -361 240z"
       id="path1" />
    <path
       d="M34055 14995 c-648 -118 -1048 -521 -1048 -1055 0 -581 463 -1050 1089 -1102 416 -34 567 2 892 216 220 145 481 588 498 845 17 261 -172 667 -379 815 -336 240 -719 342 -1052 281z"
       id="path2" />
    <path
       d="m 11587,14654 c -3,-3 -136,-7 -294,-9 -319,-2 -349,-7 -478,-69 -187,-92 -270,-269 -237,-512 19,-144 49,-192 238,-379 479,-476 501,-603 309,-1860 -13,-88 -31,-216 -40,-285 -17,-140 -84,-509 -121,-671 -13,-59 -33,-168 -43,-242 -11,-75 -29,-174 -40,-219 -10,-46 -33,-155 -50,-243 -17,-88 -53,-236 -80,-330 -27,-93 -58,-215 -70,-270 -12,-55 -33,-143 -47,-195 -14,-52 -45,-178 -69,-280 -122,-523 -159,-653 -402,-1400 -226,-697 -263,-792 -315,-814 -84,-36 -115,16 -172,279 -14,66 -44,179 -66,250 -41,129 -165,644 -220,910 -28,140 -80,369 -146,648 -19,81 -44,209 -55,283 -10,75 -30,180 -44,233 -13,53 -38,172 -55,265 -17,93 -40,210 -50,260 -10,50 -26,156 -35,236 -9,80 -25,183 -36,230 -42,175 -50,241 -59,450 -6,151 -18,276 -40,419 -17,112 -35,268 -40,347 -9,138 -15,173 -62,379 -16,73 -20,133 -23,315 -2,161 -9,272 -25,390 -63,469 24,740 292,917 363,240 309,774 -92,918 -95,34 -2715,17 -2842,-19 -253,-70 -381,-293 -339,-590 19,-136 53,-191 251,-416 257,-292 308,-432 317,-875 5,-220 3,-255 -20,-420 -25,-175 -49,-393 -62,-565 -4,-47 -17,-161 -30,-255 -13,-93 -26,-210 -30,-260 -11,-161 -25,-265 -55,-399 -16,-72 -34,-178 -40,-236 -7,-58 -25,-172 -41,-255 -16,-82 -35,-197 -44,-255 -9,-58 -29,-175 -44,-260 -16,-85 -39,-211 -50,-280 -46,-273 -226,-1058 -305,-1334 -24,-83 -53,-207 -65,-276 -64,-363 -83,-435 -234,-856 -83,-236 -114,-277 -182,-246 -38,18 -56,54 -126,261 -37,108 -87,255 -112,326 -149,427 -360,1119 -422,1385 -25,107 -67,267 -95,355 -61,197 -71,238 -110,442 -17,89 -53,238 -80,331 -27,94 -78,315 -114,493 -146,739 -177,902 -201,1058 -14,91 -39,223 -56,295 -51,222 -57,256 -78,433 -12,94 -35,241 -52,325 -88,441 -27,760 182,939 298,255 400,445 356,661 -45,221 -203,383 -428,438 -167,41 -877,49 -1164,14 -138.6842,-0.887 -260.3245,-0.249 -489.8603,2.262 -187.8297,-0.585 -301.2008,-4.231 -507.1397,-7.262 -117,-6 -235,-9 -263,-6 -97,11 -566,-10 -630,-28 -530,-146 -573,-724 -79,-1076 156,-111 306,-267 361,-374 122,-239 242,-667 298,-1065 9,-63 27,-171 40,-240 14,-69 36,-198 50,-288 13,-89 36,-210 49,-270 14,-59 50,-260 81,-447 37,-226 77,-427 120,-600 35,-143 86,-354 114,-470 47,-193 67,-280 167,-710 42,-184 125,-470 171,-588 18,-48 51,-161 73,-250 21,-89 55,-213 75,-276 19,-62 47,-158 60,-212 14,-55 43,-149 65,-210 49,-136 133,-408 210,-674 66,-228 120,-382 225,-640 40,-99 103,-261 140,-360 37,-99 87,-219 112,-268 24,-49 65,-139 90,-201 77,-191 101,-244 226,-501 340,-705 432,-803 725,-775 64,6 137,6 215,-1 65,-6 125,-8 135,-4 9,4 184,11 387,15 628,12 746,83 903,540 29,85 81,216 116,290 35,74 88,209 117,300 29,91 74,217 100,280 26,63 75,205 109,315 34,110 88,283 120,385 32,102 81,264 110,360 28,96 75,258 105,360 30,102 68,241 84,310 16,69 52,195 79,280 27,85 59,207 71,270 52,275 67,314 123,334 34,12 74,-13 93,-59 26,-61 156,-573 216,-850 17,-77 64,-239 104,-360 41,-121 94,-292 120,-380 100,-347 261,-831 334,-1006 22,-53 65,-170 96,-260 31,-90 76,-211 100,-269 24,-58 60,-150 80,-205 64,-172 210,-450 266,-510 87,-92 109,-98 424,-106 178,-4 299,-12 355,-23 113,-21 221,-20 359,4 62,11 157,20 210,20 294,1 399,86 601,490 45,91 102,200 127,242 24,42 68,132 97,200 30,68 93,209 141,313 114,252 142,318 215,525 34,96 91,243 128,325 107,245 509,1412 563,1635 17,69 52,196 80,283 27,86 73,251 103,366 30,115 73,267 95,338 22,70 52,180 66,243 15,63 39,167 55,230 16,63 51,225 79,360 27,135 72,331 100,435 79,292 118,481 146,700 14,110 46,299 71,420 74,360 100,507 138,762 168,1127 320,1454 824,1768 230,144 331,315 320,542 -18,353 -339.293,423.83 -1175.293,417.1 -302.992,9.422 -521.053,-3.151 -805.707,-0.1 z"
       id="path3"
       sodipodi:nodetypes="ccccccccccscsscccccccccsssccccccccccccccccccccscccccccccccccsccccccccccccccccccccccccccscsccccccccssssscssscccccccssccccccccccccccsccsccccccccc" />
    <path
       d="M52380 14170 c-337 -17 -408 -70 -606 -450 -44 -85 -110 -209 -146 -275 -36 -66 -108 -199 -159 -295 -152 -286 -289 -467 -463 -614 -58 -49 -154 -140 -213 -203 -58 -63 -159 -159 -222 -213 -450 -380 -470 -648 -71 -974 314 -257 335 -309 350 -861 5 -198 15 -475 21 -616 6 -140 9 -271 6 -290 -5 -36 8 -1465 19 -1904 3 -143 9 -629 14 -1080 8 -888 8 -894 71 -1181 100 -464 357 -737 746 -794 110 -16 665 -29 783 -18 58 5 330 11 605 13 662 6 787 18 927 92 395 207 413 766 31 914 -53 20 -83 23 -353 30 -620 16 -666 66 -689 749 -18 535 -20 4837 -2 4918 36 166 87 194 371 203 430 14 648 148 691 422 48 310 -219 567 -591 567 -319 0 -427 41 -471 179 -21 64 -22 89 -30 696 -8 664 -13 735 -55 822 -70 144 -200 182 -564 163z"
       id="path4" />
    <path
       d="m 63483,12709 c -37,-11 -124,-71 -210,-144 -32,-28 -108,-82 -168,-120 -251,-157 -254.667,-187.012 -397,-283 -146.155,-92.417 -143.798,-95.44 -222.5,-147.286 -153.631,-114.976 -265.548,-177.143 -423.702,-303.143 -105.25,-89.273 -199.977,-149.833 -296.643,-228.428 C 61586.893,11359.857 61587,11357 61544,11320 c -38,-32 -121,-102 -184,-153 -276,-224 -348,-413 -245,-632 43,-90 198,-278 358,-434 182,-178 204,-260 217,-831 5,-201 14,-588 20,-860 6,-272 8,-562 4,-645 -4,-82 -6,-492 -5,-910 3,-826 1,-865 -50,-1020 -70,-209 -172,-350 -351,-483 -284,-211 -350,-457 -187,-701 122,-182 243,-219 594,-182 96,10 242,13 555,10 234,-2 547,2 695,8 201,8 327,9 493,0 558,-28 850,48 947,247 117,239 59,420 -245,756 -345,383 -318,146 -320,2860 -1,954 -2,1888 -2,2075 -2,543 20,612 244,748 197,119 653,199 818,143 212,-72 387,-282 452,-542 29,-114 27,24 37,-2539 18,-4216 21,-4762 32,-4935 28,-462 110,-837 276,-1265 79,-205 101,-240 259,-425 44,-52 119,-144 166,-205 101,-130 145,-173 383,-370 311,-260 306,-257 650,-364 127,-40 302,-95 390,-123 218,-69 274,-77 515,-78 113,0 268,-7 344,-15 346,-35 1027,153 1321,365 44,31 130,82 190,113 361,181 731,657 899,1159 135,402 125,791 -29,1168 -156,384 -299,548 -597,689 -248,117 -333,141 -513,141 -55,0 -144,5 -198,10 -119,12 -203,2 -337,-40 -52,-16 -162,-47 -245,-70 -416,-114 -608,-338 -607,-710 1,-479 332,-787 912,-849 227,-25 289,-81 263,-237 -27,-157 -127,-266 -364,-398 -406,-225 -952,-80 -1221,324 -198,298 -235,475 -248,1215 -7,338 -12,460 -25,525 -36,188 -65,1808 -44,2503 7,259 8,454 3,535 -5,70 -9,363 -9,652 0,289 -7,752 -14,1030 -8,278 -14,573 -13,655 7,1608 6,1619 -224,2075 -184,366 -547,786 -848,981 -342,222 -1230,396 -1612,316 -66,-14 -179,-35 -250,-47 -124,-20 -296,-61 -473,-115 -172,-51 -231,-33 -317,98 -106,162 -188,204 -321,166 z"
       id="path5"
       sodipodi:nodetypes="ccccccccccccscccccccccccccccccccccccccccccccsccccccccccccsccccccccc" />
    <path
       d="M57350 12583 c-30 -2 -115 -10 -188 -18 -84 -10 -168 -13 -225 -9 -196 13 -593 -73 -761 -165 -93 -51 -180 -86 -280 -112 -100 -27 -204 -73 -283 -127 -33 -23 -107 -66 -163 -97 -107 -59 -176 -108 -283 -201 -34 -30 -128 -100 -209 -155 -171 -117 -247 -188 -381 -359 -54 -69 -156 -199 -228 -290 -167 -212 -250 -333 -336 -495 -39 -71 -86 -159 -106 -195 -221 -402 -389 -1084 -438 -1775 -27 -386 32 -831 180 -1347 103 -360 325 -850 527 -1161 353 -545 354 -545 570 -757 181 -177 273 -256 367 -317 40 -26 142 -92 227 -149 374 -245 793 -427 1200 -518 85 -19 211 -48 280 -65 246 -59 931 -78 1145 -33 403 86 672 179 1020 354 290 146 650 374 806 512 211 185 555 571 663 744 41 65 210 379 235 437 12 28 52 101 88 163 80 138 115 220 181 422 298 914 360 1782 180 2550 -127 544 -225 787 -512 1263 -227 376 -236 387 -514 677 -474 494 -528 541 -774 679 -70 39 -165 95 -212 125 -275 178 -599 306 -890 351 -87 14 -184 31 -215 39 -127 33 -409 45 -671 29z m225 -1323 c284 -88 564 -349 730 -680 147 -293 267 -636 330 -943 20 -95 44 -203 54 -242 101 -372 124 -1434 41 -1930 -82 -492 -238 -1001 -411 -1347 -162 -322 -523 -655 -759 -698 -105 -19 -349 -17 -407 3 -453 158 -964 1041 -1103 1907 -7 41 -28 152 -47 245 -62 304 -67 1379 -8 1650 14 66 37 172 50 235 80 390 275 966 397 1174 119 203 399 503 527 565 178 86 439 112 606 61z"
       id="path6" />
    <path
       d="M46463 12529 c-636 -46 -1392 -318 -1748 -629 -38 -34 -104 -87 -145 -118 -305 -227 -454 -374 -598 -587 -45 -66 -117 -162 -161 -213 -118 -137 -127 -152 -375 -637 -91 -177 -311 -877 -350 -1110 -95 -566 -83 -1377 28 -1901 59 -281 67 -310 141 -514 35 -96 75 -209 89 -250 15 -42 47 -114 71 -160 25 -47 81 -158 125 -248 44 -89 110 -206 147 -260 37 -53 101 -149 144 -212 79 -116 313 -385 520 -596 126 -128 526 -426 695 -517 119 -64 154 -96 154 -143 0 -56 -23 -64 -253 -85 -428 -39 -674 -111 -1057 -311 -264 -137 -531 -369 -680 -588 -246 -363 -379 -782 -341 -1070 34 -251 204 -685 329 -841 142 -178 429 -414 672 -554 74 -43 178 -103 230 -133 251 -146 651 -298 967 -366 89 -20 242 -56 340 -81 142 -37 205 -48 313 -56 170 -11 995 -30 1035 -24 17 3 120 10 230 15 150 7 227 16 309 35 60 13 186 39 280 56 604 109 880 206 1176 414 41 29 127 78 190 110 223 112 629 421 753 573 222 273 392 577 491 877 96 291 91 252 89 795 -3 718 -9 772 -145 1205 -132 424 -141 445 -333 845 -186 386 -185 415 30 870 262 551 369 900 490 1595 18 102 40 935 30 1110 -13 218 -38 413 -67 525 -16 63 -47 183 -68 265 -124 487 -340 962 -635 1395 -200 293 -201 313 -12 510 232 241 298 433 223 648 -126 356 -679 428 -1235 160 -261 -125 -375 -130 -619 -24 -158 68 -458 157 -567 168 -55 5 -165 21 -245 35 -163 30 -433 39 -657 22z m436 -1220 c197 -55 331 -149 461 -324 233 -314 494 -1054 520 -1472 5 -84 16 -193 25 -242 78 -453 85 -1083 15 -1571 -16 -113 -34 -254 -40 -315 -71 -739 -455 -1599 -782 -1755 -513 -244 -839 -154 -1155 320 -185 278 -281 475 -359 738 -144 484 -182 659 -194 887 -6 105 -15 237 -20 295 -20 211 -3 1026 24 1200 9 52 27 181 41 285 53 387 183 821 380 1266 85 192 329 493 479 590 158 103 429 147 605 98z m666 -7096 c104 -33 235 -210 401 -541 163 -324 183 -932 41 -1219 -248 -500 -270 -528 -559 -723 -354 -238 -896 -370 -1218 -296 -41 9 -135 28 -208 42 -228 42 -492 147 -705 281 -165 103 -235 241 -157 306 30 26 54 31 170 42 232 22 344 55 557 164 412 213 625 461 697 813 53 258 -15 520 -215 821 -132 199 -79 241 301 243 277 1 400 12 580 54 185 43 215 44 315 13z"
       id="path7" />
    <path
       d="M39846 12474 c-93 -7 -228 -22 -300 -34 -72 -11 -183 -27 -246 -36 -153 -20 -212 -36 -350 -94 -198 -84 -237 -80 -359 35 -177 165 -297 158 -551 -34 -41 -32 -132 -96 -201 -143 -69 -48 -179 -128 -245 -179 -65 -51 -173 -127 -239 -169 -66 -42 -185 -126 -265 -186 -80 -61 -217 -158 -305 -216 -336 -220 -726 -571 -797 -715 -87 -178 -42 -340 150 -532 274 -276 314 -377 327 -836 15 -516 16 -3740 1 -3818 -25 -127 -65 -192 -224 -360 -293 -311 -332 -525 -134 -739 105 -112 237 -151 446 -130 174 18 753 6 940 -20 167 -22 205 -20 391 20 112 24 139 26 405 28 631 3 782 51 893 287 102 213 50 373 -213 667 -244 272 -294 392 -311 745 -22 494 -31 4690 -9 4805 33 181 195 344 410 413 381 123 676 61 936 -198 234 -233 236 -245 240 -1390 3 -790 12 -1216 35 -1588 9 -157 9 -249 0 -435 -22 -429 -25 -904 -7 -1110 20 -225 20 -319 1 -583 -30 -428 -98 -573 -357 -770 -202 -154 -263 -252 -263 -419 0 -354 290 -469 1024 -406 193 17 217 17 377 2 198 -18 631 -21 854 -5 80 5 258 14 395 18 270 9 303 15 420 73 290 145 293 404 9 760 -265 332 -280 442 -254 1838 25 1381 19 3207 -13 3488 -74 654 -238 984 -702 1412 -342 315 -509 392 -1065 494 -401 73 -545 83 -844 60z"
       id="path8" />
    <path
       d="M34929 12456 c-120 -34 -207 -88 -414 -261 -77 -64 -201 -161 -275 -214 -74 -54 -176 -136 -225 -181 -113 -103 -275 -221 -427 -311 -146 -86 -243 -159 -381 -288 -60 -55 -149 -128 -199 -162 -181 -124 -263 -209 -333 -349 -127 -252 -77 -440 169 -630 206 -159 299 -328 326 -590 18 -182 22 -3785 4 -3888 -39 -229 -139 -390 -329 -535 -247 -187 -312 -424 -169 -618 109 -149 185 -161 1029 -164 443 -1 624 -5 693 -15 75 -11 115 -12 215 -2 67 7 185 12 262 12 598 1 831 73 937 288 77 156 30 302 -184 578 -260 335 -286 439 -308 1249 -5 187 -16 399 -25 470 -19 166 -19 312 1 445 26 166 31 901 9 1170 -15 189 -15 218 -1 377 20 213 26 3152 7 3281 -41 276 -175 395 -382 338z"
       id="path9" />
    <path
       d="m 14989,12149 c -31,-4 -109,-21 -175,-38 -65,-16 -173,-42 -239,-56 -481,-108 -868,-261 -1120,-444 -38,-28 -123,-87 -187,-131 -386,-263 -703,-765 -702,-1110 2,-435 204,-753 616,-970 262,-137 254,-209 -47,-472 -270,-236 -435,-434 -599,-720 -65,-114 -98,-181 -221,-448 -59,-127 -143,-434 -220,-800 -157,-749 205,-1815 816,-2405 344,-332 1030,-630 1549,-674 113,-9 429,7 640,34 63,8 162,19 219,25 133,14 342,67 457,115 236,98 286,107 446,81 160,-26 247,-28 638,-15 425,14 498,15 625,11 135,-6 850,17 929,29 409,60 424,517 32,984 -168,200 -185,331 -186,1385 0,272 -4,567 -10,655 -5,88 -15,338 -20,555 -6,217 -15,445 -20,505 -6,61 -12,463 -15,895 -7,1088 -12,1138 -147,1490 -82,213 -107,262 -184,364 -37,49 -102,142 -145,207 -87,131 -240,297 -334,364 -187,131 -564,332 -715,380 -30,10 -111,40 -180,67 -163,65 -189,73 -355,102 -213,37 -263.527,62.419 -444.527,44.419 -200.838,1.437 -0.366,0.192 -197.33,-0.982 -207,21 -415.143,4.563 -504.143,-8.437 z m 686,-1167 c 310,-97 487,-530 426,-1046 -30,-253 -76,-275 -531,-246 -201,13 -375,13 -475,0 -288,-38 -589,-44 -647,-14 -92,48 -84,88 85,384 106,186 125,217 232,359 55,75 141,193 189,263 136,196 237,279 376,307 30,6 64,13 75,15 42,10 212,-4 270,-22 z m 39,-2447 c 277,-59 366,-304 366,-1008 0,-183 7,-478 15,-657 58,-1307 -135,-1731 -790,-1734 -269,-1 -406,54 -590,237 -145,144 -186,232 -302,647 -33,120 -27,842 9,1020 109,539 285,886 618,1221 243,245 438,324 674,274 z"
       id="path10"
       sodipodi:nodetypes="ccccccccccccccscscccccccccccccccccccccccccccccccsccccccc" />
  </g>
</svg>
