<?xml version="1.0" encoding="UTF-8" standalone="no"?>
<svg
   version="1.0"
   width="1804"
   height="386"
   viewBox="0 0 7216.000000 1544.000000"
   preserveAspectRatio="xMidYMid meet"
   id="svg10"
   sodipodi:docname="cc_washington_clean.svg"
   inkscape:version="1.4.3 (0d15f75042, 2025-12-25)"
   xmlns:inkscape="http://www.inkscape.org/namespaces/inkscape"
   xmlns:sodipodi="http://sodipodi.sourceforge.net/DTD/sodipodi-0.dtd"
   xmlns="http://www.w3.org/2000/svg"
   xmlns:svg="http://www.w3.org/2000/svg">
  <defs
     id="defs10" />
  <sodipodi:namedview
     id="namedview10"
     pagecolor="#ffffff"
     bordercolor="#666666"
     borderopacity="1.0"
     inkscape:showpageshadow="2"
     inkscape:pageopacity="0.0"
     inkscape:pagecheckerboard="0"
     inkscape:deskcolor="#d1d1d1"
     showgrid="false"
     inkscape:zoom="1.3701844"
     inkscape:cx="890.02616"
     inkscape:cy="193.40462"
     inkscape:window-width="3812"
     inkscape:window-height="2323"
     inkscape:window-x="12"
     inkscape:window-y="61"
     inkscape:window-maximized="1"
     inkscape:current-layer="svg10" />
  <g
     transform="translate(0.000000,1544.000000) scale(0.100000,-0.100000)"
     fill="#C8252C"
     stroke="none"
     id="g10">
    <path
       d="M21800 12212 C21168 12124 21028 12084 20648 11892 C20340 11736 20220 11644 19996 11408 C19344 10712 19136 9788 19424 8900 C19552 8500 19592 8420 19832 8048 C20064 7692 20424 7356 20800 7140 C20912 7076 21064 6980 21132 6932 C21204 6884 21332 6804 21420 6756 C21508 6708 21640 6616 21712 6556 C21784 6492 21864 6440 21892 6440 C21920 6440 22008 6392 22084 6336 C22160 6280 22292 6200 22380 6160 C22468 6124 22676 5956 22844 5796 C23200 5452 23396 5084 23480 4608 C23532 4336 23528 4288 23444 3948 C23328 3484 23244 3324 22948 2988 C22768 2788 22636 2684 22444 2588 C22204 2472 22148 2460 21800 2460 C21452 2460 21396 2472 21148 2592 C20700 2812 20476 3220 20532 3712 C20560 3952 20640 4032 20788 3964 C20848 3936 21016 3904 21160 3892 C21388 3872 21448 3884 21620 3972 C21860 4092 21916 4152 22060 4436 C22160 4636 22168 4688 22152 4976 C22128 5376 22036 5604 21776 5872 C21608 6040 21532 6088 21260 6172 C20980 6256 20900 6268 20640 6240 C20148 6188 19988 6108 19644 5748 C19304 5396 19280 5356 19132 4948 C18912 4328 18988 3556 19328 2980 C19536 2628 19940 2204 20284 1976 C20428 1884 20708 1744 20904 1672 C21224 1556 21312 1540 21780 1528 C22544 1508 23064 1608 23640 1892 C23920 2028 24056 2132 24412 2476 C24948 3000 25144 3332 25308 3980 C25488 4684 25380 5400 24980 6144 C24776 6520 24684 6640 24248 7088 C23828 7520 23696 7628 23404 7784 C23216 7888 22888 8084 22680 8220 C22472 8360 22200 8528 22080 8600 C21736 8800 21372 9116 21224 9336 C20992 9680 20940 10240 21100 10628 C21192 10848 21508 11152 21756 11264 C22188 11460 22564 11360 22940 10956 C23148 10732 23440 10312 23584 10036 C23684 9836 23992 9528 24136 9480 C24224 9452 24304 9452 24368 9476 C24672 9592 24680 9820 24416 10740 C24368 10916 24312 11160 24300 11284 C24284 11408 24232 11580 24184 11664 C24108 11800 24052 11840 23740 11968 C23540 12048 23316 12116 23236 12116 C23160 12120 23016 12144 22916 12176 C22672 12256 22204 12272 21800 12212 Z"
       id="path_s" />
    <path
       d="M27820 14912 C27732 14868 27532 14724 27376 14596 C27220 14464 27072 14360 27048 14360 C27024 14360 26944 14308 26872 14244 C26800 14184 26640 14068 26520 13988 C26400 13912 26256 13800 26200 13740 C26144 13680 26016 13588 25916 13540 C25592 13376 25556 13100 25828 12900 C26068 12724 26240 12548 26308 12424 C26376 12292 26396 11460 26412 7840 C26412 7840 26420 5620 26420 5620 C26420 5620 26324 5424 26324 5424 C26260 5296 26148 5172 25996 5052 C25652 4784 25604 4600 25824 4396 C25824 4396 25924 4300 25924 4300 C25924 4300 27200 4296 27200 4296 C27200 4296 28480 4288 28480 4288 C28480 4288 28608 4356 28608 4356 C28868 4484 28856 4740 28584 5032 C28212 5432 28208 5476 28204 8692 C28204 8692 28200 10840 28200 10840 C28200 10840 28256 10952 28256 10952 C28596 11604 29572 11436 29928 10660 C29928 10660 30020 10460 30020 10460 C30020 10460 30016 8016 30016 8016 C30016 8016 30008 5576 30008 5576 C30008 5576 29924 5372 29924 5372 C29876 5264 29756 5092 29660 5000 C29380 4724 29340 4476 29556 4360 C29604 4336 30056 4328 30808 4340 C31452 4352 32028 4360 32092 4360 C32236 4360 32360 4488 32360 4644 C32360 4808 32308 4896 32140 5000 C32048 5056 31988 5132 31964 5232 C31940 5316 31912 6380 31896 7800 C31896 7800 31872 10220 31872 10220 C31872 10220 31792 10560 31792 10560 C31660 11112 31444 11460 31048 11752 C30884 11872 30308 12160 30228 12160 C30196 12160 30056 12188 29920 12224 C29612 12300 28920 12276 28572 12176 C28572 12176 28344 12108 28344 12108 C28344 12108 28276 12192 28276 12192 C28276 12192 28208 12276 28208 12276 C28208 12276 28196 13556 28196 13556 C28196 13556 28180 14832 28180 14832 C28180 14832 28104 14916 28104 14916 C28012 15016 28020 15016 27820 14912 Z"
       id="path_h" />
    <path
       d="M33920 14844 C33724 14800 33480 14668 33352 14532 C33216 14388 33084 14096 33080 13936 C33080 13628 33348 13248 33688 13076 C33884 12976 33964 12960 34240 12960 C34516 12960 34596 12976 34792 13076 C35056 13208 35100 13256 35272 13568 C35436 13864 35440 14064 35288 14340 C35200 14500 35128 14568 34900 14696 C34656 14836 34584 14856 34340 14864 C34188 14872 33996 14860 33920 14844 Z"
       id="path2" />
    <path
       d="M6868 14480 C5992 14460 5992 14460 5896 14348 C5736 14160 5780 13984 6068 13664 C6376 13324 6412 13196 6388 12584 C6372 12084 6276 11168 6200 10740 C6180 10632 6148 10424 6124 10280 C6040 9768 5856 8848 5740 8360 C5704 8216 5652 7972 5620 7816 C5588 7664 5500 7340 5424 7104 C5344 6868 5280 6652 5280 6624 C5280 6532 5136 6432 5092 6488 C5036 6564 4908 6924 4740 7460 C4656 7724 4556 8040 4516 8160 C4360 8632 4044 9912 3924 10556 C3900 10672 3864 10824 3844 10896 C3824 10964 3768 11272 3720 11580 C3676 11888 3612 12256 3580 12400 C3448 12976 3532 13356 3836 13596 C4108 13812 4176 14012 4060 14240 C3952 14452 3856 14460 1652 14432 C644 14420 644 14420 504 14284 C284 14072 364 13720 668 13568 C1032 13380 1268 12876 1408 11980 C1520 11256 1640 10600 1732 10200 C1768 10056 1832 9780 1876 9580 C1972 9168 2128 8584 2212 8320 C2248 8220 2312 8004 2356 7840 C2404 7676 2460 7488 2484 7420 C2508 7356 2568 7156 2620 6980 C2904 5988 3668 4284 3876 4188 C4060 4096 5284 4156 5424 4260 C5524 4336 5728 4764 5900 5260 C6176 6064 6236 6244 6280 6420 C6308 6532 6400 6864 6480 7160 C6660 7792 6760 8224 6760 8348 C6760 8484 6804 8560 6876 8560 C6956 8560 6996 8444 7096 7960 C7300 6984 7852 5232 8192 4516 C8332 4212 8332 4212 8800 4188 C9352 4156 9784 4188 9908 4264 C10028 4340 10492 5272 10740 5940 C10792 6072 10880 6308 10940 6460 C11140 6984 11248 7300 11284 7440 C11300 7516 11344 7672 11380 7780 C11416 7892 11480 8096 11520 8240 C11564 8384 11624 8592 11656 8700 C11688 8812 11760 9116 11820 9380 C11876 9644 11968 10048 12020 10280 C12128 10760 12236 11352 12384 12240 C12512 13004 12648 13320 12976 13632 C13096 13748 13220 13840 13252 13840 C13432 13840 13544 14232 13408 14400 C13328 14500 13328 14500 12088 14500 C10720 14500 10716 14500 10660 14244 C10624 14076 10692 13952 10972 13676 C11440 13216 11448 13052 11116 11160 C10888 9848 10528 8376 10256 7660 C10208 7528 10148 7340 10120 7240 C10036 6912 9912 6604 9856 6584 C9788 6560 9640 6776 9640 6900 C9640 6944 9596 7116 9544 7280 C9492 7444 9408 7760 9364 7980 C9320 8200 9244 8532 9200 8720 C9156 8908 9104 9168 9080 9300 C9056 9432 9020 9632 9000 9740 C8940 10024 8884 10408 8844 10800 C8824 10988 8788 11312 8764 11520 C8740 11728 8708 11956 8684 12020 C8620 12216 8592 13180 8644 13368 C8684 13524 8792 13652 9084 13896 C9196 13992 9184 14240 9060 14376 C8980 14460 8928 14480 8752 14484 C8076 14500 7648 14496 6868 14480 Z"
       id="path3" />
    <path
       d="M52028 13944 C51980 13892 51816 13604 51668 13308 C51668 13308 51396 12768 51396 12768 C51396 12768 50860 12244 50860 12244 C50212 11612 50180 11528 50548 11276 C50644 11208 50772 11080 50832 10992 C50832 10992 50940 10828 50940 10828 C50940 10828 50984 8044 50984 8044 C50984 8044 51024 5260 51024 5260 C51024 5260 51116 5060 51116 5060 C51300 4648 51468 4560 52088 4556 C53220 4544 53820 4560 53944 4600 C54236 4696 54348 5068 54136 5236 C54136 5236 54028 5320 54028 5320 C54028 5320 53704 5324 53704 5324 C53252 5324 53120 5376 53012 5600 C53012 5600 52920 5776 52920 5776 C52920 5776 52920 8544 52920 8544 C52920 8544 52920 11308 52920 11308 C52920 11308 52992 11376 52992 11376 C53044 11420 53160 11448 53344 11456 C53868 11484 54076 11632 53976 11904 C53908 12096 53776 12160 53392 12172 C53204 12180 53020 12208 52988 12232 C52944 12268 52928 12456 52912 13100 C52896 13660 52872 13940 52840 13980 C52804 14024 52700 14040 52452 14040 C52452 14040 52116 14040 52116 14040 C52116 14040 52028 13944 52028 13944 Z"
       id="path4" />
    <path
       d="M63352 12484 C63280 12424 63140 12320 63040 12260 C62940 12200 62804 12092 62736 12024 C62668 11956 62504 11840 62368 11768 C62228 11692 62088 11588 62052 11536 C62016 11480 61904 11388 61804 11332 C61704 11272 61516 11136 61392 11024 C61076 10756 61076 10680 61416 10328 C61556 10180 61692 10016 61720 9960 C61788 9832 61828 8304 61800 6840 C61800 6840 61780 5780 61780 5780 C61780 5780 61660 5568 61660 5568 C61592 5448 61456 5296 61340 5208 C61080 5012 61052 4860 61240 4676 C61240 4676 61364 4552 61364 4552 C61364 4552 61512 4580 61512 4580 C61592 4596 62212 4616 62888 4620 C62888 4620 64116 4628 64116 4628 C64116 4628 64216 4696 64216 4696 C64440 4840 64388 5056 64036 5460 C63932 5580 63828 5736 63804 5808 C63776 5896 63756 6776 63748 8488 C63748 8488 63740 11036 63740 11036 C63740 11036 63824 11148 63824 11148 C63944 11312 64344 11448 64712 11456 C64712 11456 65004 11460 65004 11460 C65004 11460 65180 11276 65180 11276 C65296 11152 65376 11020 65416 10880 C65416 10880 65480 10664 65480 10664 C65480 10664 65484 7424 65484 7424 C65488 4192 65512 3116 65600 2664 C65708 2092 66056 1548 66592 1104 C66592 1104 66876 872 66876 872 C66876 872 67180 796 67180 796 C67344 756 67520 700 67572 672 C67624 644 67892 620 68240 608 C68240 608 68820 592 68820 592 C68820 592 69204 716 69204 716 C69416 784 69620 876 69660 920 C69696 960 69788 1016 69860 1040 C70060 1104 70440 1532 70620 1896 C70620 1896 70780 2212 70780 2212 C70780 2212 70780 2636 70780 2636 C70780 2636 70780 3060 70780 3060 C70780 3060 70656 3324 70656 3324 C70520 3612 70380 3740 70056 3880 C70056 3880 69848 3964 69848 3964 C69848 3964 69496 3948 69496 3948 C68852 3916 68560 3808 68436 3548 C68200 3064 68560 2628 69240 2572 C69492 2548 69600 2476 69600 2316 C69600 2064 69436 1832 69128 1652 C69128 1652 68956 1548 68956 1548 C68956 1548 68636 1572 68636 1572 C68636 1572 68320 1592 68320 1592 C68320 1592 68132 1708 68132 1708 C67912 1844 67708 2128 67616 2420 C67512 2760 67476 3928 67456 7300 C67444 9340 67424 10612 67396 10740 C67304 11172 67132 11480 66764 11852 C66576 12044 66404 12200 66384 12200 C66364 12200 66276 12236 66184 12276 C65644 12524 64936 12548 64248 12340 C64248 12340 63880 12228 63880 12228 C63880 12228 63800 12300 63800 12300 C63756 12340 63720 12404 63720 12440 C63720 12624 63536 12648 63352 12484 Z"
       id="path5"
       sodipodi:nodetypes="ccccccccccccscccccccccccccccccccccccccccccccsccccccccccccsccccccccc" />
    <path
       d="M57596 12464 C57588 12456 57324 12436 57008 12424 C57008 12424 56436 12400 56436 12400 C56436 12400 56184 12260 56184 12260 C56044 12184 55900 12120 55864 12120 C55732 12120 55276 11820 54836 11444 C54444 11108 53796 10048 53736 9640 C53720 9544 53684 9404 53656 9336 C53520 9016 53548 7940 53704 7360 C53932 6516 54692 5372 55228 5072 C55344 5004 55448 4936 55460 4920 C55528 4812 56488 4440 56700 4440 C56752 4440 56844 4420 56908 4396 C57276 4244 58640 4452 58920 4700 C58952 4728 59044 4780 59120 4816 C59300 4900 59480 5024 59792 5288 C60600 5968 61120 7220 61120 8488 C61120 9624 60748 10528 59924 11376 C59688 11616 59428 11844 59340 11884 C59252 11928 59064 12032 58920 12120 C58776 12204 58628 12276 58592 12276 C58552 12280 58464 12304 58392 12336 C58136 12444 57656 12520 57596 12464 Z M57684 11376 C58196 11208 58720 10160 58848 9040 C58896 8616 58856 7576 58780 7212 C58580 6280 58332 5784 57900 5456 C57900 5456 57704 5304 57704 5304 C57704 5304 57448 5272 57448 5272 C57448 5272 57192 5244 57192 5244 C57192 5244 56988 5360 56988 5360 C56648 5556 56132 6380 56040 6880 C56020 6980 55976 7176 55940 7320 C55900 7484 55868 7844 55852 8280 C55852 8280 55832 8980 55832 8980 C55832 8980 55900 9300 55900 9300 C56252 10960 56848 11648 57684 11376 Z"
       id="path6" />
    <path
       d="M46096 12340 C45532 12232 45052 12028 44712 11744 C44632 11676 44464 11540 44340 11440 C44220 11340 44080 11196 44032 11120 C43984 11044 43916 10944 43876 10900 C43748 10756 43492 10264 43408 10000 C43136 9152 43140 9192 43140 8360 C43140 7536 43164 7380 43352 6840 C43512 6372 43752 5960 44132 5500 C44612 4920 45392 4452 46060 4348 C46568 4268 47008 4264 47236 4340 C47512 4432 47712 4360 47820 4136 C47864 4044 47932 3932 47972 3888 C48144 3700 48248 3004 48160 2636 C48088 2328 47900 1980 47708 1788 C47112 1196 46064 1132 45264 1644 C45072 1764 44840 2048 44840 2160 C44840 2260 44924 2316 45020 2276 C45208 2204 45536 2236 45800 2364 C46264 2584 46552 2964 46504 3308 C46456 3680 46264 3904 45840 4088 C45652 4172 45552 4188 45140 4192 C44620 4196 44548 4180 44052 3972 C43660 3804 43360 3528 43136 3128 C42992 2872 42984 2844 42988 2500 C42988 2200 43004 2104 43088 1920 C43204 1668 43572 1304 43944 1076 C44252 884 44844 656 45116 620 C45236 604 45396 564 45476 532 C45720 428 46984 444 47560 556 C48180 680 48624 836 48700 960 C48712 980 48820 1044 48940 1100 C49264 1256 49796 1792 49952 2124 C50172 2588 50208 2792 50176 3420 C50156 3896 50128 4044 50016 4408 C49944 4640 49812 4976 49724 5148 C49480 5640 49480 5664 49736 6200 C50108 6980 50240 7576 50240 8480 C50236 9124 50208 9304 50028 9840 C49848 10376 49772 10524 49304 11196 C49164 11396 49184 11460 49416 11572 C49688 11700 49796 12012 49640 12212 C49576 12296 49516 12316 49284 12340 C48988 12368 48812 12328 48432 12136 C48432 12136 48228 12032 48228 12032 C48228 12032 47936 12156 47936 12156 C47448 12364 46636 12444 46096 12340 Z M46984 11416 C47404 11232 47552 11020 47816 10220 C48064 9464 48120 8340 47964 7300 C47904 6912 47744 6320 47644 6136 C47364 5592 47152 5424 46696 5376 C46484 5352 46428 5364 46288 5440 C45996 5604 45584 6212 45484 6628 C45464 6712 45408 6932 45360 7120 C45280 7416 45268 7560 45272 8240 C45272 9136 45340 9624 45528 10180 C45704 10692 45800 10864 46064 11152 C46268 11372 46328 11412 46520 11460 C46640 11488 46744 11512 46744 11516 C46748 11520 46856 11472 46984 11416 Z"
       id="path7" />
    <path
       d="M38152 12248 C38080 12188 37948 12088 37860 12032 C37392 11716 37088 11500 36968 11396 C36896 11332 36820 11280 36800 11280 C36756 11280 36264 10880 36132 10732 C35988 10580 36016 10460 36240 10224 C36348 10108 36468 9936 36500 9840 C36500 9840 36560 9668 36560 9668 C36560 9668 36560 7512 36560 7512 C36560 7512 36560 5356 36560 5356 C36560 5356 36364 5148 36364 5148 C36048 4808 36008 4668 36184 4492 C36184 4492 36288 4392 36288 4392 C36288 4392 36472 4416 36472 4416 C36576 4432 36688 4444 36720 4444 C36752 4444 37060 4440 37400 4436 C37740 4436 38212 4432 38452 4432 C38452 4432 38880 4432 38880 4432 C38880 4432 39020 4572 39020 4572 C39096 4648 39160 4744 39160 4780 C39160 4880 39016 5100 38908 5172 C38856 5204 38760 5336 38688 5468 C38688 5468 38564 5704 38564 5704 C38564 5704 38560 7280 38560 7280 C38556 8148 38556 9340 38556 9928 C38556 9928 38560 10992 38560 10992 C38560 10992 38668 11124 38668 11124 C38800 11276 39028 11384 39300 11420 C39708 11476 40172 11180 40280 10796 C40316 10676 40388 6768 40368 6060 C40364 5884 40332 5644 40296 5524 C40236 5312 40180 5240 39868 4976 C39692 4828 39676 4684 39816 4540 C39816 4540 39912 4444 39912 4444 C39912 4444 41068 4464 41068 4464 C42784 4492 42840 4504 42840 4760 C42840 4840 42784 4940 42660 5080 C42552 5204 42460 5356 42424 5480 C42424 5480 42364 5684 42364 5684 C42364 5684 42364 8140 42364 8140 C42364 8140 42364 10600 42364 10600 C42364 10600 42300 10848 42300 10848 C42160 11388 41792 11856 41320 12096 C40768 12380 39428 12424 38952 12176 C38892 12144 38796 12100 38740 12080 C38740 12080 38640 12040 38640 12040 C38640 12040 38540 12200 38540 12200 C38420 12392 38332 12400 38152 12248 Z"
       id="path8" />
    <path
       d="M34860 12304 C34796 12272 34628 12152 34492 12032 C34200 11784 34016 11640 33696 11420 C33572 11332 33384 11188 33280 11100 C33176 11012 33024 10888 32944 10828 C32768 10692 32664 10504 32696 10380 C32708 10328 32796 10236 32892 10172 C33004 10096 33096 9988 33172 9844 C33172 9844 33280 9624 33280 9624 C33280 9624 33280 7552 33280 7552 C33280 7552 33280 5476 33280 5476 C33280 5476 33160 5240 33160 5240 C33084 5084 32996 4980 32920 4940 C32680 4816 32612 4540 32796 4444 C32836 4420 33320 4400 33924 4396 C35564 4384 35508 4380 35644 4516 C35708 4580 35760 4668 35760 4712 C35760 4756 35680 4892 35580 5012 C35220 5456 35228 5344 35236 8956 C35240 11140 35228 12136 35196 12228 C35148 12376 35064 12396 34860 12304 Z"
       id="path9" />
    <path
       d="M14800 11976 C14140 11820 14004 11780 13820 11692 C13096 11332 12592 10700 12664 10240 C12752 9668 13352 9304 13848 9516 C14036 9596 14372 9952 14500 10200 C14640 10476 15116 11076 15208 11096 C15592 11172 15744 11148 15932 10972 C16136 10780 16200 10568 16200 10084 C16200 9804 16184 9640 16152 9608 C16120 9576 15928 9560 15560 9560 C14228 9556 13744 9392 13036 8684 C12708 8356 12384 7776 12288 7340 C12264 7232 12224 7056 12200 6952 C12020 6124 12528 4872 13196 4492 C13296 4432 13408 4364 13440 4336 C13472 4308 13652 4224 13840 4152 C14160 4028 14204 4020 14656 4024 C15220 4032 15664 4100 15940 4220 C16092 4288 16168 4300 16240 4272 C16420 4204 18488 4272 18568 4348 C18720 4484 18644 4704 18256 5228 C18188 5324 18144 6540 18108 9220 C18096 10260 18096 10260 17972 10568 C17688 11288 17112 11752 16240 11960 C15988 12020 15036 12028 14800 11976 Z M15960 8532 C16068 8420 16120 8324 16152 8172 C16212 7896 16224 6028 16168 5820 C16144 5732 16112 5612 16100 5548 C16016 5144 15404 4880 14968 5064 C13956 5484 14072 7664 15152 8512 C15448 8744 15740 8752 15960 8532 Z"
       id="path10"
       sodipodi:nodetypes="ccccccccccccccscscccccccccccccccccccccccccccccccsccccccc" />
  </g>
</svg>
